<svg width="20" height="18" viewBox="0 0 20 18" fill="none" xmlns="http://www.w3.org/2000/svg">
<path d="M16.488 6.664C16.692 6 16.8 5.328 16.8 4.664C16.8 2.092 14.828 0 12.4 0C10.748 0 9.232 0.9 8.4 2.308C7.568 0.9 6.052 0 4.4 0C1.972 0 0 2.092 0 4.664C0 10.528 7.876 14.792 8.212 14.972C8.272 15.004 8.336 15.02 8.4 15.02C8.464 15.02 8.528 15.004 8.588 14.972C8.6 14.964 8.888 14.812 9.344 14.528C10.944 16.208 12.872 17.256 13.012 17.328C13.072 17.36 13.136 17.376 13.2 17.376C13.264 17.376 13.328 17.36 13.388 17.328C13.624 17.204 19.2 14.18 19.2 10.008C19.2 8.316 18.02 6.916 16.488 6.664ZM8.4 14.16C7.212 13.48 0.8 9.572 0.8 4.664C0.8 2.532 2.416 0.8 4.4 0.8C5.74 0.8 7.38 1.596 8.024 3.38C8.08 3.54 8.232 3.644 8.4 3.644C8.568 3.644 8.72 3.54 8.776 3.38C9.42 1.596 11.06 0.8 12.4 0.8C14.384 0.8 16 2.532 16 4.664C16 5.32 15.88 5.984 15.652 6.644C14.656 6.748 13.756 7.3 13.2 8.132C12.58 7.204 11.532 6.62 10.4 6.62C8.636 6.62 7.2 8.14 7.2 10.008C7.2 11.484 7.896 12.812 8.804 13.92C8.64 14.02 8.5 14.104 8.4 14.16ZM13.2 16.516C12.244 15.96 8 13.304 8 10.008C8 8.58 9.076 7.42 10.4 7.42C11.296 7.42 12.392 7.952 12.824 9.148C12.88 9.308 13.032 9.412 13.2 9.412C13.368 9.412 13.52 9.308 13.576 9.148C14.008 7.956 15.104 7.42 16 7.42C17.324 7.42 18.4 8.58 18.4 10.008C18.4 13.304 14.156 15.96 13.2 16.516Z" fill="black"/>
</svg>
