<svg width="24" height="18" viewBox="0 0 24 18" fill="none" xmlns="http://www.w3.org/2000/svg">
<path d="M20.52 6.16036C21.2025 5.49188 21.6 4.5787 21.6 3.6C21.6 1.61503 19.9852 0 18 0C17.3441 0 16.6988 0.180281 16.1332 0.521484C15.9442 0.635766 15.8832 0.881438 15.9973 1.07072C16.1113 1.26 16.3574 1.32033 16.5465 1.20666C16.9875 0.94064 17.4899 0.800016 18 0.800016C19.5437 0.800016 20.8 2.05608 20.8 3.6C20.8 4.55077 20.3238 5.42714 19.5246 5.94548C18.8535 6.38573 18.0027 6.51267 17.2258 6.29138C17.0156 6.23081 16.7922 6.35348 16.7312 6.56597C16.6707 6.77845 16.7937 6.99975 17.0062 7.0605C17.3297 7.15308 17.664 7.19995 18 7.19995C18.629 7.19995 19.2369 7.02839 19.7767 6.71855C21.8301 7.46259 23.2 9.4013 23.2 11.6V13.6H19.5525C19.2692 10.9283 17.5884 8.59036 15.1367 7.48022C15.9169 6.68588 16.4 5.59875 16.4 4.40002C16.4 1.97381 14.4262 0 12 0C9.57384 0 7.59998 1.97381 7.59998 4.40002C7.59998 5.59913 8.08336 6.68658 8.86397 7.48102C8.03887 7.85588 7.27364 8.38031 6.62461 9.02564C5.38041 10.2734 4.62328 11.8749 4.44356 13.6001H0.800016V11.6001C0.800016 10.2149 1.34105 8.90887 2.32191 7.92389C2.86186 7.38736 3.51923 6.97805 4.22705 6.7208C4.76691 7.02937 5.37305 7.2 6 7.2C6.33595 7.2 6.67031 7.15313 6.99375 7.06055C7.20623 6.9998 7.32928 6.7785 7.26877 6.56602C7.20783 6.35353 6.98437 6.23105 6.77423 6.29142C5.99766 6.51309 5.1473 6.38634 4.47347 5.94455C3.67622 5.42714 3.20002 4.55081 3.20002 3.6C3.20002 2.05608 4.45627 0.800016 6 0.800016C6.51014 0.800016 7.0125 0.94064 7.4535 1.20666C7.64334 1.32033 7.88827 1.25939 8.00273 1.07072C8.11678 0.881485 8.05584 0.635766 7.8668 0.521484C7.30116 0.180281 6.65587 0 6 0C4.01484 0 2.4 1.61503 2.4 3.6C2.4 4.57795 2.7968 5.49042 3.47737 6.1583C2.84302 6.45319 2.25712 6.8603 1.75627 7.35783C0.623812 8.4953 0 10.0018 0 11.6V14C0 14.2209 0.178922 14.4 0.399984 14.4H4.39997V17.6C4.39997 17.8209 4.57889 18 4.79995 18H19.2C19.4211 18 19.5999 17.8209 19.5999 17.6V14.4H23.5999C23.821 14.4 23.9999 14.2209 23.9999 14V11.6C24 9.23494 22.6255 7.131 20.52 6.16036ZM8.4 4.40002C8.4 2.41505 10.0148 0.800016 12 0.800016C13.9852 0.800016 15.6 2.41505 15.6 4.40002C15.6 6.38498 13.9852 8.00002 12 8.00002C10.0148 8.00002 8.4 6.38494 8.4 4.40002ZM18.8 17.2H5.19998V14.4C5.19998 12.5863 5.907 10.8783 7.18983 9.59161C7.86562 8.91942 8.68491 8.39803 9.5633 8.06072C10.2615 8.52698 11.0992 8.79998 12 8.79998C12.9022 8.79998 13.7415 8.52619 14.4403 8.05852C17.0549 9.06309 18.8 11.5838 18.8 14.4V17.2Z" fill="#121212"/>
</svg>
